Coordinates
version=1
nRows=10
nColumns=22
inDegrees=yes

Units are S.I. units (second, meters, Newtons, ...)
If the header above contains a line with 'inDegrees', this indicates whether rotational values are in degrees (yes) or radians (no).

endheader
time	pelvis_tilt	pelvis_list	pelvis_rotation	pelvis_tx	pelvis_ty	pelvis_tz	hip_flexion_r	hip_adduction_r	hip_rotation_r	knee_angle_r	ankle_angle_r	subtalar_angle_r	hip_flexion_l	hip_adduction_l	hip_rotation_l	knee_angle_l	ankle_angle_l	subtalar_angle_l	lumbar_extension	lumbar_bending	lumbar_rotation
      1.39000000	      0.67826720	     -0.54064727	     -0.33821308	     -1.71249528	      1.07671334	     -0.32066340	      1.50756742	      2.03709858	     -4.38721694	    -16.03686375	     15.49794626	     -4.76868235	      0.07182827	     -0.28669920	     -0.20808404	    -15.27449544	     15.66700632	     -0.31276537	     -3.96851627	     -1.13990595	     -6.37192424
      1.40000000	      0.58716401	     -0.55173889	     -0.43095652	     -1.71156230	      1.07642328	     -0.31956056	      1.57970658	      2.11232632	     -4.25072311	    -16.10993408	     15.76497039	     -4.74958569	      0.16135663	     -0.36843526	     -0.31898381	    -15.39315110	     15.82105876	     -0.05468675	     -3.95209293	     -1.14526843	     -6.33852406
      1.41000000	      0.49429277	     -0.56972179	     -0.52061098	     -1.71058358	      1.07612022	     -0.31840838	      1.63869500	      2.19927768	     -4.11122092	    -16.16196466	     16.02410205	     -4.72288615	      0.26008598	     -0.46328325	     -0.43761786	    -15.53146186	     15.98350165	      0.20983310	     -3.94280844	     -1.14326095	     -6.30643399
      1.42000000	      0.37771996	     -0.59583945	     -0.60206472	     -1.70957155	      1.07577634	     -0.31721238	      1.70839528	      2.30165283	     -3.95236445	    -16.19373999	     16.26412483	     -4.68195826	      0.40294442	     -0.57335685	     -0.56117460	    -15.70567172	     16.13102882	      0.55193354	     -3.91558819	     -1.13012654	     -6.29943389
      1.43000000	      0.26906636	     -0.63285874	     -0.67589740	     -1.70856476	      1.07541113	     -0.31597854	      1.76828794	      2.41978178	     -3.79554286	    -16.22499837	     16.48218057	     -4.64378298	      0.57444449	     -0.69794943	     -0.68019871	    -15.94840503	     16.31228904	      0.83249963	     -3.91646369	     -1.10471119	     -6.28338484
      1.44000000	      0.15021169	     -0.68280140	     -0.73845536	     -1.70756046	      1.07499997	     -0.31472518	      1.83559661	      2.55585581	     -3.63793781	    -16.25051649	     16.67843389	     -4.60641552	      0.80646821	     -0.83776994	     -0.78474367	    -16.28138185	     16.50053926	      1.10606804	     -3.92212350	     -1.06045912	     -6.27761652
      1.45000000	      0.01596168	     -0.74531124	     -0.77898676	     -1.70656087	      1.07453586	     -0.31346041	      1.91448280	      2.71017031	     -3.49089389	    -16.26676936	     16.86356719	     -4.57054547	      1.11868924	     -0.99226264	     -0.86975899	    -16.72699873	     16.68643885	      1.38015266	     -3.92656401	     -1.00093781	     -6.27541021
      1.46000000	     -0.09855812	     -0.83683564	     -0.80283069	     -1.70560773	      1.07406656	     -0.31218991	      1.98259018	      2.89862279	     -3.34545651	    -16.29974422	     17.00714565	     -4.54153673	      1.48646169	     -1.17534261	     -0.92163014	    -17.30653091	     16.89000342	      1.57654737	     -3.98062790	     -0.90397851	     -6.28314117
      1.47000000	     -0.23294680	     -0.93937929	     -0.79984250	     -1.70467904	      1.07353990	     -0.31093914	      2.07011216	      3.10034837	     -3.22450448	    -16.32468095	     17.15017999	     -4.51331539	      1.96794979	     -1.36823430	     -0.94255235	    -18.04845488	     17.07175085	      1.78594771	     -4.03188551	     -0.79108439	     -6.29682126
      1.48000000	     -0.38431757	     -1.03914790	     -0.76927184	     -1.70375860	      1.07296424	     -0.30972167	      2.17701251	      3.29779201	     -3.13411951	    -16.35219003	     17.30160977	     -4.48994896	      2.56708457	     -1.55455635	     -0.93050315	    -18.96369771	     17.20091540	      2.01153020	     -4.07786190	     -0.68006631	     -6.31518770
